# AST/ASF file generated using VICON BodyLanguage
# -----------------------------------------------
:version 1.10
:name VICON
:units
  mass 1.0
  length 0.45
  angle deg
:documentation
   .ast/.asf automatically generated from VICON data using
   VICON BodyBuilder and BodyLanguage model FoxedUp or BRILLIANT.MOD
:root
   order TX TY TZ RX RY RZ
   axis XYZ
   position 0 0 0  
   orientation 0 0 0 
:bonedata
  begin
     id 1 
     name lhipjoint
     direction 0.623415 -0.642378 0.445763 
     length 2.49859 
     axis 0 0 0  XYZ
  end
  begin
     id 2 
     name lfemur
     direction 0.34202 -0.939693 0  
     length 6.69689  
     axis 0 0 20  XYZ
    dof rx ry rz
    limits (-160.0 20.0)
           (-70.0 70.0)
           (-60.0 70.0)
  end
  begin
     id 3 
     name ltibia
     direction 0.34202 -0.939693 0   
     length 7.37574   
     axis 0 0 20   XYZ
    dof rx
    limits (-10.0 170.0)
  end
  begin
     id 4 
     name lfoot
     direction 0.084323 -0.231675 0.969132   
     length 2.09111   
     axis -90 7.62852e-016 20   XYZ
    dof rx rz
    limits (-45.0 90.0)
           (-70.0 20.0)
  end
  begin
     id 5 
     name ltoes
     direction 1.5357e-011 -4.21957e-011 1   
     length 1.04989   
     axis -90 7.62852e-016 20   XYZ
    dof rx
    limits (-90.0 20.0)
  end
  begin
     id 6 
     name rhipjoint
     direction -0.605402 -0.653903 0.45376   
     length 2.45455  
     axis 0 0 0  XYZ 
  end
  begin
     id 7 
     name rfemur
     direction -0.34202 -0.939693 0   
     length 6.64523   
     axis 0 0 -20   XYZ
    dof rx ry rz
    limits (-160.0 20.0)
           (-70.0 70.0)
           (-70.0 60.0)
  end
  begin
     id 8 
     name rtibia
     direction -0.34202 -0.939693 0   
     length 7.3339   
     axis 0 0 -20   XYZ
    dof rx
    limits (-10.0 170.0)
 end
 begin
     id 9 
     name rfoot
     direction -0.120854 -0.332043 0.93549   
     length 2.23135  
     axis -90 -7.62852e-016 -20   XYZ
    dof rx rz
    limits (-45.0 90.0)
           (-20.0 70.0)
  end
  begin
     id 10 
     name rtoes
     direction -1.53563e-011 -4.21914e-011 1   
     length 1.10614   
     axis -90 -7.62852e-016 -20   XYZ
    dof rx
    limits (-90.0 20.0)
  end
  begin
     id 11 
     name lowerback
     direction 0.0319682 0.998615 -0.0417941   
     length 2.02718   
     axis 0 0 0   XYZ
    dof rx ry rz
    limits (-20.0 45.0)
           (-30.0 30.0)
           (-30.0 30.0)
  end
  begin
     id 12 
     name upperback
     direction 7.63181e-005 0.995808 0.0914691   
     length 1.97539   
     axis 0 0 0   XYZ
    dof rx ry rz
    limits (-20.0 45.0)
           (-30.0 30.0)
           (-30.0 30.0)
  end
  begin
     id 13 
     name thorax
     direction -0.016423 0.993627 0.111514   
     length 2.00349   
     axis 0 0 0   XYZ
    dof rx ry rz
    limits (-20.0 45.0)
           (-30.0 30.0)
           (-30.0 30.0)
  end
  begin
     id 14 
     name lowerneck
     direction -0.174763 0.981668 -0.0760716   
     length 1.71436   
     axis 0 0 0   XYZ
    dof rx ry rz
    limits (-20.0 45.0)
           (-30.0 30.0)
           (-30.0 30.0)
  end
  begin
     id 15 
     name upperneck
     direction 0.345458 0.934587 -0.0848868   
     length 1.72805   
     axis 0 0 0   XYZ
    dof rx ry rz
    limits (-20.0 45.0)
           (-30.0 30.0)
           (-30.0 30.0)
  end
  begin
     id 16
     name head
     direction 0.13001 0.989848 -0.0574291  
     length 1.767  
     axis 0 0 0   XYZ
    dof rx ry rz
    limits (-20.0 45.0)
           (-30.0 30.0)
           (-30.0 30.0)
  end
  begin
     id 17 
     name lclavicle
     direction 0.952951 0.290122 0.0878234  
     length 3.54654  
     axis 0 0 0   XYZ
    dof ry rz
    limits (-20.0 10.0)
           (0.0 20.0)
  end
  begin
     id 18 
     name lhumerus
     direction 1 -4.48957e-011 -4.56525e-028   
     length 5.19807   
     axis 180 -30 -90   XYZ
    dof rx ry rz
    limits (-60.0 90.0)
           (-90.0 90.0)
           (-90.0 90.0)
  end
  begin
     id 19
     name lradius
     direction 1 -4.48979e-011 -2.0317e-027   
     length 3.0937   
     axis 180 -30 -90   XYZ
    dof rx
    limits (-10.0 170.0)
  end
  begin
     id 20
     name lwrist
     direction 1 -4.48953e-011 -3.05809e-027   
     length 1.54685   
     axis 8.48514e-016 90 90   XYZ
    dof ry
    limits (-180.0 0.0)
 end
  begin
     id 21 
     name lhand
     direction 1 -4.48952e-011 -6.11639e-027   
     length 0.672632   
     axis 3.9013e-015 90 90   XYZ
    dof rx rz
    limits (-90.0 90.0)
           (-45.0 45.0)
  end
  begin
     id 22 
     name lfingers
     direction 1 -4.48925e-011 -1.22426e-026   
     length 0.542293   
     axis 7.80276e-015 90 90   XYZ
    dof rx
    limits (0.0 90.0)
  end
  begin
     id 23
     name lthumb
     direction 0.707107 -6.3486e-011 0.707107   
     length 0.778628   
     axis -90 45 5.37419e-014   XYZ
    dof rx rz
    limits (-45.0 45.0)
           (-45.0 45.0)
  end
  begin
     id 24 
     name rclavicle
     direction -0.960732 0.273675 -0.0457849   
     length 3.52079  
     axis 0 0 0   XYZ 
    dof ry rz
    limits (-10.0 20.0)
           (-20.0 0.0)
  end
  begin
     id 25 
     name rhumerus
     direction -1 -4.48976e-011 -1.63613e-027  
     length 5.45222   
     axis 180 30 90   XYZ
    dof rx ry rz
    limits (-90.0 60.0)
           (-90.0 90.0)
           (-90.0 90.0)
  end
  begin
     id 26 
     name rradius
     direction -1 -4.48957e-011 -7.00033e-028   
     length 3.01284   
     axis 180 30 90   XYZ
    dof rx
    limits (-10.0 170.0)
  end
  begin
     id 27 
     name rwrist
     direction -1 -4.48983e-011 -3.05543e-027   
     length 1.50642   
     axis 8.48514e-016 -90 -90   XYZ
    dof ry
    limits (-180.0 0.0)
  end
  begin
     id 28
     name rhand
     direction -1 -4.48984e-011 -6.11072e-027   
     length 0.622296   
     axis 3.9013e-015 -90 -90   XYZ
    dof rx rz
    limits (-90.0 90.0)
           (-45.0 45.0)
  end
  begin
     id 29
     name rfingers
     direction -1 -4.48865e-011 -1.22637e-026   
     length 0.501711   
     axis 7.80276e-015 -90 -90   XYZ
    dof rx
    limits (0.0 90.0)
  end
  begin
     id 30
     name rthumb
     direction -0.707107 -6.34932e-011 0.707107   
     length 0.72036   
     axis -90 -45 -5.37419e-014   XYZ
    dof rx rz
    limits (-45.0 45.0)
           (-45.0 45.0)
  end
:hierarchy
  begin
    root lhipjoint rhipjoint lowerback
    lhipjoint lfemur
    lfemur ltibia
    ltibia lfoot
    lfoot ltoes
    rhipjoint rfemur
    rfemur rtibia
    rtibia rfoot
    rfoot rtoes
    lowerback upperback
    upperback thorax
    thorax lowerneck lclavicle rclavicle
    lowerneck upperneck
    upperneck head
    lclavicle lhumerus
    lhumerus lradius
    lradius lwrist
    lwrist lhand lthumb
    lhand lfingers
    rclavicle rhumerus
    rhumerus rradius
    rradius rwrist
    rwrist rhand rthumb
    rhand rfingers
  end

#!OML:ASF H:\Not Pregnant\Project 1\Capture day 1\Session 1\non-pregnant.ASF
:FULLY-SPECIFIED
:DEGREES
38
root 7.28338 15.9288 28.712 -164.569 -10.056 -175.472
lowerback -13.7538 5.44324 6.85701
upperback -4.18486 5.93219 -1.73643
thorax 4.13451 2.77863 -4.64529
lowerneck 19.1735 -3.49834 -30.673
upperneck -1.95387 -14.0522 40.9435
head 1.61817 -10.075 22.0453
rclavicle -4.69629e-015 -1.98785e-015
rhumerus -101.263 54.6711 -125.34
rradius 120.508
rwrist -71.1112
rhand 20.4314 -45.4612
rfingers 7.12502
rthumb -135.063 111.014
lclavicle -4.69629e-015 -1.98785e-015
lhumerus -111.445 -47.0565 127.524
lradius 126.242
lwrist 116.702
lhand -39.2091 30.36
lfingers 7.12502
lthumb -12.2053 59.9839
rfemur -23.7159 -8.97097 28.5578
rtibia 27.1132
rfoot -22.6322 12.0153
rtoes -11.3647
lfemur -28.0263 7.06216 -15.8633
ltibia 32.8851
lfoot -21.7687 -0.869612
ltoes -22.0899
39
root 7.29022 15.9273 28.708 -164.59 -10.004 -175.476
lowerback -13.7009 5.34135 6.84411
upperback -4.10934 5.80907 -1.70593
thorax 4.16476 2.72491 -4.63092
lowerneck 20.068 -3.74448 -30.7178
upperneck -2.67242 -14.5415 41.0159
head 1.49597 -10.4043 22.1072
rclavicle 1.18289e-013 -1.19271e-015
rhumerus -100.657 54.9134 -124.425
rradius 119.011
rwrist -69.5792
rhand 24.6447 -42.5578
rfingers 7.12502
rthumb -131.165 115.629
lclavicle 1.18289e-013 -1.19271e-015
lhumerus -110.744 -46.8467 126.073
lradius 125.54
lwrist 116.539
lhand -36.3627 30.8109
lfingers 7.12502
lthumb -9.45979 60.5786
rfemur -23.686 -8.83724 28.5539
rtibia 27.1426
rfoot -22.6428 11.912
rtoes -11.4264
lfemur -27.9801 6.93723 -15.8153
ltibia 32.9088
lfoot -21.7497 -0.645386
ltoes -22.2904
40
root 7.29696 15.9257 28.7042 -164.619 -9.95709 -175.477
lowerback -13.6332 5.23772 6.83784
upperback -4.02922 5.68467 -1.67671
thorax 4.19252 2.67108 -4.62252
lowerneck 20.9047 -3.97831 -30.7652
upperneck -3.34012 -15.0254 41.1272
head 1.40134 -10.7323 22.1944
rclavicle 6.35117e-014 4.77083e-014
rhumerus -99.8168 55.1108 -123.349
rradius 117.324
rwrist -67.589
rhand 29.3005 -39.3801
rfingers 7.12502
rthumb -126.923 121.176
lclavicle 6.35117e-014 4.77083e-014
lhumerus -109.963 -46.6391 124.542
lradius 124.682
lwrist 116.274
lhand -33.0173 31.2845
lfingers 7.12502
lthumb -6.23093 61.1729
rfemur -23.6452 -8.71357 28.5527
rtibia 27.1691
rfoot -22.6498 11.8159
rtoes -11.4913
lfemur -27.9319 6.81657 -15.7653
ltibia 32.9404
lfoot -21.7307 -0.424471
ltoes -22.5193
41
root 7.30383 15.9241 28.7006 -164.659 -9.92044 -175.468
lowerback -13.5483 5.13079 6.84276
upperback -3.94463 5.55617 -1.64389
thorax 4.21584 2.61566 -4.61816
lowerneck 21.6839 -4.20061 -30.8158
upperneck -3.96669 -15.4998 41.272
head 1.32975 -11.0562 22.3024
rclavicle -1.12189e-013 5.96354e-015
rhumerus -98.7112 55.2432 -122.087
rradius 115.459
rwrist -65.0492
rhand 34.3027 -35.8969
rfingers 7.12502
rthumb -122.472 127.966
lclavicle -1.12189e-013 5.96354e-015
lhumerus -109.101 -46.4205 122.957
lradius 123.633
lwrist 115.797
lhand -29.0389 31.7957
lfingers 7.12502
lthumb -2.38925 61.7621
rfemur -23.592 -8.59872 28.5642
rtibia 27.1926
rfoot -22.652 11.7213
rtoes -11.5637
lfemur -27.8799 6.69661 -15.7016
ltibia 32.9805
lfoot -21.714 -0.215044
ltoes -22.73
42
root 7.31084 15.9225 28.6973 -164.705 -9.89205 -175.452
lowerback -13.4418 5.02613 6.8552
upperback -3.86658 5.4314 -1.61462
thorax 4.22199 2.56143 -4.6225
lowerneck 22.4578 -4.41642 -30.8381
upperneck -4.58671 -15.9626 41.4303
head 1.25634 -11.3765 22.4152
rclavicle 3.67752e-014 -3.18055e-015
rhumerus -97.3334 55.2726 -120.637
rradius 113.427
rwrist -61.8809
rhand 39.5738 -32.0943
rfingers 7.12502
rthumb -117.959 136.463
lclavicle 3.67752e-014 -3.18055e-015
lhumerus -108.182 -46.1882 121.359
lradius 122.367
lwrist 114.95
lhand -24.3183 32.3862
lfingers 7.12502
lthumb 2.16994 62.3549
rfemur -23.5331 -8.49461 28.5828
rtibia 27.2145
rfoot -22.6543 11.6321
rtoes -11.6313
lfemur -27.8266 6.57663 -15.6308
ltibia 33.0276
lfoot -21.7022 -0.0164132
ltoes -22.921
43
root 7.31828 15.9209 28.6945 -164.755 -9.87424 -175.431
lowerback -13.3129 4.9238 6.8706
upperback -3.79572 5.31081 -1.58491
thorax 4.20908 2.50842 -4.62865
lowerneck 23.1027 -4.63232 -31.049
upperneck -4.93143 -16.5019 41.2266
head 1.21154 -11.7046 23.0056
rclavicle -4.92737e-014 -1.59028e-014
rhumerus -95.6927 55.1915 -119
rradius 111.256
rwrist -58.0625
rhand 44.8936 -27.7951
rfingers 7.12502
rthumb -113.694 147.364
lclavicle -4.92737e-014 -1.59028e-014
lhumerus -107.196 -45.9352 119.769
lradius 120.856
lwrist 113.554
lhand -18.7443 33.1263
lfingers 7.12502
lthumb 7.55192 62.9714
rfemur -23.4734 -8.39503 28.6111
rtibia 27.2388
rfoot -22.6555 11.5394
rtoes -11.6986
lfemur -27.7731 6.45369 -15.5495
ltibia 33.0787
lfoot -21.6934 0.16974
ltoes -23.0808
44
root 7.32632 15.9193 28.6921 -164.802 -9.8563 -175.406
lowerback -13.1641 4.82193 6.87558
upperback -3.73089 5.1931 -1.54763
thorax 4.17767 2.45588 -4.62152
lowerneck 23.8914 -4.85147 -31.0141
upperneck -5.575 -16.9461 41.3637
head 1.11225 -12.0104 23.1098
rclavicle -3.52594e-014 -3.06128e-014
rhumerus -93.8203 55.013 -117.188
rradius 108.972
rwrist -53.6392
rhand 50.0423 -22.8631
rfingers 7.12502
rthumb -110.021 161.336
lclavicle -3.52594e-014 -3.06128e-014
lhumerus -106.094 -45.6401 118.18
lradius 119.088
lwrist 111.408
lhand -12.1672 34.03
lfingers 7.12502
lthumb 13.8959 63.5457
rfemur -23.4224 -8.28691 28.6436
rtibia 27.2726
rfoot -22.6595 11.4391
rtoes -11.7702
lfemur -27.7219 6.33343 -15.4644
ltibia 33.1274
lfoot -21.6845 0.353572
ltoes -23.2403
45
root 7.33525 15.9177 28.69 -164.84 -9.83079 -175.394
lowerback -13.0011 4.72051 6.85013
upperback -3.66913 5.08065 -1.50413
thorax 4.13291 2.40514 -4.59034
lowerneck 24.6635 -5.08249 -30.9591
upperneck -6.23045 -17.3814 41.4841
head 1.00623 -12.3056 23.1949
rclavicle 1.16786e-015 -2.10712e-014
rhumerus -91.7371 54.7431 -115.217
rradius 106.604
rwrist -48.7302
rhand 54.6604 -17.1019
rfingers 7.12502
rthumb -107.344 178.28
lclavicle 1.16786e-015 -2.10712e-014
lhumerus -104.855 -45.2902 116.599
lradius 117.063
lwrist 108.326
lhand -4.53975 35.0126
lfingers 7.12502
lthumb 21.2356 63.8693
rfemur -23.3903 -8.15365 28.6637
rtibia 27.3245
rfoot -22.6655 11.3165
rtoes -11.8592
lfemur -27.6745 6.21159 -15.3912
ltibia 33.166
lfoot -21.6694 0.545462
ltoes -23.4145
46
root 7.34531 15.9162 28.6883 -164.863 -9.78911 -175.406
lowerback -12.8323 4.62279 6.77932
upperback -3.60876 4.97903 -1.4566
thorax 4.08099 2.35911 -4.5274
lowerneck 25.3981 -5.31757 -30.9004
upperneck -6.87922 -17.8045 41.6008
head 0.904018 -12.5893 23.2742
rclavicle 1.30452e-014 2.42517e-014
rhumerus -89.4589 54.378 -113.096
rradius 104.174
rwrist -43.5074
rhand 58.3611 -10.5527
rfingers 7.12502
rthumb -105.835 196.205
lclavicle 1.30452e-014 2.42517e-014
lhumerus -103.437 -44.8899 115.005
lradius 114.791
lwrist 104.239
lhand 4.14809 35.981
lfingers 7.12502
lthumb 29.5571 63.6475
rfemur -23.3839 -7.97082 28.6568
rtibia 27.4024
rfoot -22.6718 11.1495
rtoes -11.9697
lfemur -27.6305 6.08945 -15.3422
ltibia 33.1872
lfoot -21.6432 0.747453
ltoes -23.6034
47
root 7.35642 15.9149 28.6868 -164.869 -9.73198 -175.454
lowerback -12.6606 4.52387 6.64845
upperback -3.54673 4.88332 -1.40442
thorax 4.02508 2.31555 -4.42451
lowerneck 26.0573 -5.54885 -30.862
upperneck -7.50016 -18.2105 41.7253
head 0.82044 -12.8585 23.3583
rclavicle 6.09772e-014 -5.56597e-015
rhumerus -87.012 53.9137 -110.844
rradius 101.716
rwrist -38.1918
rhand 60.8482 -3.55733
rfingers 7.12502
rthumb -105.236 211.895
lclavicle 6.09772e-014 -5.56597e-015
lhumerus -101.803 -44.4251 113.36
lradius 112.296
lwrist 99.272
lhand 13.7933 36.6789
lfingers 7.12502
lthumb 38.7146 62.2801
rfemur -23.4045 -7.73988 28.6074
rtibia 27.5094
rfoot -22.678 10.9352
rtoes -12.1061
lfemur -27.5886 5.95931 -15.3327
ltibia 33.1873
lfoot -21.602 0.966069
ltoes -23.8118
